<svg width="19" height="18" viewBox="0 0 19 18" fill="none" xmlns="http://www.w3.org/2000/svg">
<path d="M17.3342 6.07514C16.3478 4.72162 14.9696 3.81723 13.4582 3.40912V3.41117C13.1075 3.02152 12.7117 2.66264 12.2688 2.34271C8.91164 -0.0977155 4.19895 0.646718 1.74826 4.00385C-0.226641 6.73139 -0.142559 10.4002 1.87131 13.0068L1.88771 15.7261C1.88771 15.7917 1.89797 15.8574 1.91848 15.9189C2.02717 16.2655 2.39631 16.4562 2.74084 16.3475L5.33713 15.5292C6.02414 15.7733 6.73371 15.9127 7.43918 15.9517L7.42893 15.9599C9.25617 17.2909 11.6515 17.6908 13.8479 16.9648L16.4544 17.8138C16.52 17.8343 16.5877 17.8466 16.6574 17.8466C17.0204 17.8466 17.3137 17.5534 17.3137 17.1904V14.4423C19.1204 11.9896 19.1676 8.59965 17.3342 6.07514ZM5.62424 14.0732L5.37814 13.9706L3.34787 14.6064L3.32736 12.4736L3.1633 12.289C1.42834 10.1726 1.3135 7.12309 2.93771 4.88568C4.91467 2.17455 8.70451 1.57572 11.4074 3.53217C14.1186 5.50297 14.7195 9.28666 12.761 11.9814C11.1183 14.2352 8.17746 15.0678 5.62424 14.0732ZM15.9807 13.7246L15.8166 13.9296L15.8371 16.0624L13.8274 15.3857L13.5813 15.4882C12.4328 15.9148 11.2085 15.9496 10.0744 15.6318L10.0703 15.6297C11.5859 15.1642 12.9599 14.2208 13.9504 12.8632C15.5172 10.7037 15.7715 7.99057 14.861 5.67728L14.8733 5.68549C15.3449 6.02387 15.7777 6.44633 16.1447 6.95697C17.6336 8.99955 17.5495 11.7804 15.9807 13.7246Z" fill="white"/>
</svg>
