<svg width="106" height="34" viewBox="0 0 106 34" fill="none" xmlns="http://www.w3.org/2000/svg">
<path d="M0.568 26.924V1.591H10.613V24.67C10.613 25.552 11.2173 25.993 12.426 25.993L11.691 33.49H7.673C2.93633 33.49 0.568 31.3013 0.568 26.924ZM27.4755 33H17.2835V10.019H27.4755V33ZM17.0875 5.07C17.0875 2.29333 18.8352 0.904998 22.3305 0.904998C25.8258 0.904998 27.5735 2.29333 27.5735 5.07C27.5735 6.50733 27.1325 7.53633 26.2505 8.157C25.4012 8.77767 24.0945 9.088 22.3305 9.088C20.5665 9.088 19.2435 8.794 18.3615 8.206C17.5122 7.58533 17.0875 6.54 17.0875 5.07ZM49.3919 8.941C53.9652 8.941 56.2519 11.1623 56.2519 15.605V33H45.9129V17.81C45.9129 17.2873 45.6352 17.026 45.0799 17.026C44.5572 17.026 43.9692 17.1893 43.3159 17.516V33H33.1239V9.529H42.3849L42.6789 11.048C44.7369 9.64333 46.9746 8.941 49.3919 8.941ZM85.761 33H74.736L71.894 25.307H71.698V33H61.653V1.591H71.698V17.761H71.894L75.324 9.529H85.957L80.469 21.73C81.0897 23.0693 81.988 25.013 83.164 27.561C84.3727 30.0763 85.2383 31.8893 85.761 33ZM99.4649 19.868V33H89.3709V9.529H98.0929L98.3869 11.097H98.5829C99.3669 10.3783 100.265 9.88833 101.278 9.627C102.291 9.333 103.777 9.186 105.737 9.186L105.443 17.32H102.111C101.131 17.32 100.445 17.4997 100.053 17.859C99.6609 18.2183 99.4649 18.888 99.4649 19.868Z" fill="white"/>
</svg>
